{
  "source": "C:\\Users\\Peter\\Desktop\\stuff\\MIUN\\quantitative_research\\video_compression\\videos\\BVI-HD\\BVI-HD_CDVL_videos\\ORIG\\Rowing_1920x1080_30fps.mp4",
  "output": "C:\\Users\\Peter\\Desktop\\stuff\\MIUN\\quantitative_research\\video_compression\\compressed_videos\\BVI-HD\\av1\\1.5\\Rowing_1920x1080_30fps_av1.mkv",
  "codec": "av1",
  "ok": "Input #0, mov,mp4,m4a,3gp,3g2,mj2, from 'C:\\Users\\Peter\\Desktop\\stuff\\MIUN\\quantitative_research\\video_compression\\videos\\BVI-HD\\BVI-HD_CDVL_videos\\ORIG\\Rowing_1920x1080_30fps.mp4':\n  Metadata:\n    major_brand     : isom\n    minor_version   : 512\n    compatible_brands: isomiso2avc1mp41\n    encoder         : Lavf54.28.101\n  Duration: 00:00:05.00, start: 0.000000, bitrate: 259220 kb/s\n  Stream #0:0[0x1](und): Video: h264 (High 4:4:4 Predictive) (avc1 / 0x31637661), yuv420p(progressive), 1920x1080, 259216 kb/s, 30 fps, 30 tbr, 30 tbn (default)\n    Metadata:\n      handler_name    : VideoHandler\n      vendor_id       : [0][0][0][0]\n[out#0/matroska @ 0000023425309700] Codec AVOption b:a (set bitrate (in bits/s)) has not been used for any stream. The most likely reason is either wrong type (e.g. a video option with no video streams) or that it is a private option of some decoder which was not actually used for any stream.\nStream mapping:\n  Stream #0:0 -> #0:0 (h264 (native) -> av1 (libsvtav1))\nPress [q] to stop, [?] for help\nSvt[info]: -------------------------------------------\nSvt[info]: SVT [version]:\tSVT-AV1 Encoder Lib v3.1.0-19-g6ecfe8ec\nSvt[info]: SVT [build]  :\tGCC 15.2.0\t 64 bit\nSvt[info]: LIB Build date: Aug 17 2025 11:37:13\nSvt[info]: -------------------------------------------\nSvt[info]: Level of Parallelism: 5\nSvt[info]: Number of PPCS 93\nSvt[info]: [asm level on system : up to avx2]\nSvt[info]: [asm level selected : up to avx2]\nSvt[info]: -------------------------------------------\nSvt[info]: SVT [config]: main profile\ttier (auto)\tlevel (auto)\nSvt[info]: SVT [config]: width / height / fps numerator / fps denominator \t\t: 1920 / 1080 / 30 / 1\nSvt[info]: SVT [config]: bit-depth / color format \t\t\t\t\t: 8 / YUV420\nSvt[info]: SVT [config]: preset / tune / pred struct \t\t\t\t\t: 4 / PSNR / random access\nSvt[info]: SVT [config]: gop size / mini-gop size / key-frame type \t\t\t: 161 / 16 / key frame\nSvt[info]: SVT [config]: BRC mode / target bitrate (kbps)\t\t\t\t: VBR / 1500 \nSvt[info]: SVT [config]: AQ mode / Variance Boost \t\t\t\t\t: 2 / 0\nSvt[info]: SVT [config]: sharpness / luminance-based QP bias \t\t\t\t: 0 / 0\nSvt[info]: SVT [config]: QP scale compress strength \t\t\t\t\t: 0\nSvt[info]: -------------------------------------------\nOutput #0, matroska, to 'C:\\Users\\Peter\\Desktop\\stuff\\MIUN\\quantitative_research\\video_compression\\compressed_videos\\BVI-HD\\av1\\1.5\\Rowing_1920x1080_30fps_av1.mkv':\n  Metadata:\n    major_brand     : isom\n    minor_version   : 512\n    compatible_brands: isomiso2avc1mp41\n    encoder         : Lavf62.3.100\n  Stream #0:0(und): Video: av1 (AV01 / 0x31305641), yuv420p(tv, progressive), 1920x1080, q=2-31, 1500 kb/s, 30 fps, 1k tbn (default)\n    Metadata:\n      encoder         : Lavc62.11.100 libsvtav1\n      handler_name    : VideoHandler\n      vendor_id       : [0][0][0][0]\n    Side data:\n      cpb: bitrate max/min/avg: 0/0/1500000 buffer size: 1500000 vbv_delay: N/A\nframe=    0 fps=0.0 q=0.0 size=       0KiB time=N/A bitrate=N/A speed=N/A elapsed=0:00:01.02    \nframe=    0 fps=0.0 q=0.0 size=       0KiB time=N/A bitrate=N/A speed=N/A elapsed=0:00:01.57    \nframe=    0 fps=0.0 q=0.0 size=       0KiB time=N/A bitrate=N/A speed=N/A elapsed=0:00:02.12    \nframe=    0 fps=0.0 q=0.0 size=       0KiB time=N/A bitrate=N/A speed=N/A elapsed=0:00:02.64    \nframe=    0 fps=0.0 q=0.0 size=       0KiB time=N/A bitrate=N/A speed=N/A elapsed=0:00:03.15    \nframe=    1 fps=0.3 q=58.0 size=       1KiB time=00:00:00.00 bitrate=N/A speed=   0x elapsed=0:00:03.67    \nframe=    6 fps=1.4 q=62.0 size=       1KiB time=00:00:00.16 bitrate=  34.2kbits/s speed=0.0397x elapsed=0:00:04.19    \nframe=    9 fps=1.9 q=61.0 size=       1KiB time=00:00:00.26 bitrate=  21.4kbits/s speed=0.0565x elapsed=0:00:04.71    \nframe=   14 fps=2.7 q=61.0 size=       1KiB time=00:00:00.43 bitrate=  13.2kbits/s speed=0.0826x elapsed=0:00:05.24    \nframe=   19 fps=3.3 q=59.0 size=       1KiB time=00:00:00.60 bitrate=   9.5kbits/s speed=0.104x elapsed=0:00:05.76    \nframe=   22 fps=3.5 q=59.0 size=       1KiB time=00:00:00.70 bitrate=   8.1kbits/s speed=0.111x elapsed=0:00:06.29    \nframe=   25 fps=3.7 q=59.0 size=       1KiB time=00:00:00.80 bitrate=   7.1kbits/s speed=0.117x elapsed=0:00:06.81    \nframe=   29 fps=4.0 q=59.0 size=       1KiB time=00:00:00.93 bitrate=   6.1kbits/s speed=0.127x elapsed=0:00:07.33    \nframe=   35 fps=4.5 q=59.0 size=       1KiB time=00:00:01.13 bitrate=   5.0kbits/s speed=0.144x elapsed=0:00:07.85    \nframe=   38 fps=4.5 q=59.0 size=       1KiB time=00:00:01.23 bitrate=   4.6kbits/s speed=0.147x elapsed=0:00:08.36    \nframe=   41 fps=4.6 q=59.0 size=       1KiB time=00:00:01.33 bitrate=   4.3kbits/s speed=0.15x elapsed=0:00:08.87    \nframe=   46 fps=4.9 q=59.0 size=       1KiB time=00:00:01.50 bitrate=   3.8kbits/s speed=0.16x elapsed=0:00:09.39    \nframe=   51 fps=5.1 q=57.0 size=       1KiB time=00:00:01.66 bitrate=   3.4kbits/s speed=0.168x elapsed=0:00:09.90    \nframe=   57 fps=5.5 q=56.0 size=       1KiB time=00:00:01.86 bitrate=   3.1kbits/s speed=0.179x elapsed=0:00:10.42    \nframe=   59 fps=5.4 q=57.0 size=       1KiB time=00:00:01.93 bitrate=   3.0kbits/s speed=0.176x elapsed=0:00:10.95    \nframe=   63 fps=5.5 q=56.0 size=       1KiB time=00:00:02.06 bitrate=   2.8kbits/s speed=0.18x elapsed=0:00:11.48    \nframe=   69 fps=5.7 q=55.0 size=       1KiB time=00:00:02.26 bitrate=   2.5kbits/s speed=0.189x elapsed=0:00:12.01    \nframe=   73 fps=5.8 q=52.0 size=       1KiB time=00:00:02.40 bitrate=   2.4kbits/s speed=0.191x elapsed=0:00:12.53    \nframe=   77 fps=5.9 q=55.0 size=       1KiB time=00:00:02.53 bitrate=   2.3kbits/s speed=0.194x elapsed=0:00:13.06    \nframe=   81 fps=6.0 q=47.0 size=       1KiB time=00:00:02.66 bitrate=   2.1kbits/s speed=0.196x elapsed=0:00:13.58    \nframe=   89 fps=6.3 q=54.0 size=       1KiB time=00:00:02.93 bitrate=   1.9kbits/s speed=0.208x elapsed=0:00:14.10    \nframe=   91 fps=6.2 q=57.0 size=       1KiB time=00:00:03.00 bitrate=   1.9kbits/s speed=0.205x elapsed=0:00:14.61    \nframe=   97 fps=6.4 q=47.0 size=       1KiB time=00:00:03.20 bitrate=   1.8kbits/s speed=0.212x elapsed=0:00:15.12    \nframe=  103 fps=6.6 q=60.0 size=       1KiB time=00:00:03.40 bitrate=   1.7kbits/s speed=0.217x elapsed=0:00:15.65    \nframe=  107 fps=6.6 q=60.0 size=       1KiB time=00:00:03.53 bitrate=   1.6kbits/s speed=0.219x elapsed=0:00:16.16    \nframe=  113 fps=6.8 q=51.0 size=       1KiB time=00:00:03.73 bitrate=   1.5kbits/s speed=0.224x elapsed=0:00:16.68    \nframe=  119 fps=6.9 q=59.0 size=       1KiB time=00:00:03.93 bitrate=   1.5kbits/s speed=0.229x elapsed=0:00:17.20    \nframe=  123 fps=6.9 q=60.0 size=       1KiB time=00:00:04.06 bitrate=   1.4kbits/s speed=0.23x elapsed=0:00:17.71    \nframe=  129 fps=7.1 q=56.0 size=       1KiB time=00:00:04.26 bitrate=   1.3kbits/s speed=0.234x elapsed=0:00:18.23    \nframe=  137 fps=7.3 q=59.0 size=       1KiB time=00:00:04.53 bitrate=   1.3kbits/s speed=0.242x elapsed=0:00:18.76    \nframe=  141 fps=7.3 q=60.0 size=       1KiB time=00:00:04.66 bitrate=   1.2kbits/s speed=0.242x elapsed=0:00:19.27    \n[out#0/matroska @ 0000023425309700] video:908KiB audio:0KiB subtitle:0KiB other streams:0KiB global headers:0KiB muxing overhead: 0.155819%\nframe=  150 fps=7.7 q=60.0 Lsize=     909KiB time=00:00:04.96 bitrate=1499.2kbits/s speed=0.255x elapsed=0:00:19.45    \n",
  "seconds": 19.908488035202026,
  "probe_out": {}
}